<svg width="38" height="41" viewBox="0 0 38 41" fill="none" xmlns="http://www.w3.org/2000/svg">
<path d="M22.1858 20.4118L2.09875 39.7543C1.15811 39.1114 0.599628 38.0421 0.609504 36.9029V3.92073C0.599628 2.78147 1.15811 1.71218 2.09875 1.06934L22.1858 20.4118Z" fill="#2196F3"/>
<path d="M29.2134 13.6555L22.1847 20.4117L2.09766 1.06927C2.17334 1.01061 2.25217 0.956039 2.33373 0.90581C3.39536 0.262366 4.72141 0.241594 5.80269 0.851324L29.2134 13.6555Z" fill="#4CAF50"/>
<path d="M37.7341 20.4118C37.7472 21.6979 37.0483 22.8858 35.9179 23.4993L29.2162 27.168L22.1875 20.4118L29.2162 13.6555L35.9179 17.3242C37.0483 17.9377 37.7472 19.1256 37.7341 20.4118Z" fill="#FFC107"/>
<path d="M29.2134 27.1679L5.80269 39.972C4.71902 40.5723 3.39799 40.5515 2.33373 39.9175C2.25217 39.8673 2.17334 39.8128 2.09766 39.7541L22.1848 20.4116L29.2134 27.1679Z" fill="#F44336"/>
</svg>
