<svg width="58" height="50" viewBox="0 0 58 50" fill="none" xmlns="http://www.w3.org/2000/svg">
<path d="M28.8221 9.19434L26.5703 24.0321L28.8221 50.0006L51.2032 42.5816V16.6133L28.8221 9.19434Z" fill="#033A6E"/>
<path d="M6.44141 16.6133V42.5816L28.8224 50.0006V9.19434L6.44141 16.6133Z" fill="#0663BA"/>
<path d="M22.381 34.263L28.822 24.0321L6.44092 16.6133L0 26.8442L22.381 34.263Z" fill="#4FA2F0"/>
<path d="M35.2612 34.263L28.8203 24.0321L51.2013 16.6133L57.6423 26.8442L35.2612 34.263Z" fill="#0663BA"/>
<path d="M8.50657 7.61561C9.32066 7.20143 9.74912 6.60158 9.74912 5.60182C9.74912 3.88796 8.53514 3.00247 6.69274 3.00247H2.3081V13H6.7213C8.77794 13 10.0919 11.9431 10.0919 10.115C10.0919 8.94386 9.57774 7.97267 8.50657 7.61561ZM7.69249 5.9446C7.69249 6.61586 7.32115 6.95863 6.4785 6.95863H4.35046V4.94484H6.42137C7.27831 4.94484 7.69249 5.21621 7.69249 5.9446ZM6.67845 11.0576H4.35046V8.8296H6.66417C7.72105 8.8296 8.02098 9.21522 8.02098 9.94361C8.02098 10.6149 7.72105 11.0576 6.67845 11.0576ZM16.4929 2.83108C13.5508 2.83108 11.2942 5.0591 11.2942 8.00123C11.2942 10.9434 13.5508 13.1714 16.4929 13.1714C19.435 13.1714 21.7059 10.9434 21.7059 8.00123C21.7059 5.0591 19.435 2.83108 16.4929 2.83108ZM16.4929 4.77346C18.2924 4.77346 19.635 6.13027 19.635 8.00123C19.635 9.8722 18.2924 11.229 16.4929 11.229C14.6933 11.229 13.3508 9.8722 13.3508 8.00123C13.3508 6.13027 14.6933 4.77346 16.4929 4.77346ZM31.0527 13L27.8392 7.97267L30.967 3.00247H28.539L26.5966 6.21596L24.6685 3.00247H22.2406L25.3112 7.81556L22.0835 13H24.5114L26.5395 9.55799L28.6104 13H31.0527ZM36.7172 3.00247H32.5183V13H34.5606V9.77222H36.7172C38.8596 9.77222 40.2735 8.45826 40.2735 6.35878C40.2735 4.2593 38.8596 3.00247 36.7172 3.00247ZM36.6316 7.82985H34.5606V4.94484H36.6316C37.6884 4.94484 38.2026 5.50185 38.2026 6.38735C38.2026 7.25856 37.6884 7.82985 36.6316 7.82985ZM42.0026 13H44.0449V3.00247H42.0026V13ZM50.9996 13.1714C53.3847 13.1714 55.2414 11.7003 55.8269 9.57227H53.6418C53.1704 10.6006 52.2135 11.229 50.9853 11.229C49.1429 11.229 47.886 9.8722 47.886 8.00123C47.886 6.13027 49.1429 4.77346 50.9853 4.77346C52.2135 4.77346 53.1704 5.40187 53.6418 6.43019H55.8269C55.2414 4.30215 53.3847 2.83108 50.9996 2.83108C48.0146 2.83108 45.8294 5.0591 45.8294 8.00123C45.8294 10.9434 48.0146 13.1714 50.9996 13.1714Z" fill="white"/>
</svg>
