<svg width="33" height="41" viewBox="0 0 33 41" fill="none" xmlns="http://www.w3.org/2000/svg">
<path d="M24.0027 0.408203C24.0958 0.408203 24.1889 0.408203 24.2873 0.408203C24.5156 3.22909 23.4389 5.33685 22.1303 6.86322C20.8463 8.37905 19.0881 9.84921 16.2444 9.62614C16.0547 6.84565 17.1332 4.89422 18.44 3.37136C19.6519 1.95214 21.8739 0.689238 24.0027 0.408203Z" fill="white"/>
<path d="M32.6105 29.7692C32.6105 29.7973 32.6105 29.8219 32.6105 29.8482C31.8114 32.2686 30.6714 34.343 29.2803 36.2681C28.0104 38.0158 26.4541 40.3677 23.6754 40.3677C21.2743 40.3677 19.6794 38.8238 17.2186 38.7816C14.6156 38.7394 13.184 40.0726 10.804 40.4081C10.5318 40.4081 10.2595 40.4081 9.99253 40.4081C8.24485 40.1552 6.83441 38.7711 5.80688 37.524C2.77697 33.8389 0.435604 29.0789 0 22.9875C0 22.3903 0 21.7948 0 21.1976C0.184429 16.8381 2.30273 13.2935 5.11834 11.5757C6.60431 10.6623 8.64708 9.88422 10.9217 10.232C11.8965 10.3831 12.8925 10.7168 13.7654 11.047C14.5927 11.3649 15.6273 11.9287 16.6074 11.8989C17.2713 11.8796 17.9318 11.5335 18.601 11.2894C20.5612 10.5815 22.4828 9.77005 25.0156 10.1512C28.0595 10.6114 30.22 11.9639 31.5549 14.0506C28.9799 15.6893 26.9442 18.1589 27.292 22.3762C27.6011 26.2071 29.8283 28.4483 32.6105 29.7692Z" fill="white"/>
</svg>
