<svg width="30" height="30" viewBox="0 0 30 30" fill="none" xmlns="http://www.w3.org/2000/svg">
<path d="M5 3H1C0.448 3 0 3.448 0 4V8C0 8.552 0.448 9 1 9C1.552 9 2 8.552 2 8V5H5C5.552 5 6 4.552 6 4C6 3.448 5.552 3 5 3Z" fill="#067EED"/>
<path d="M29 21C28.448 21 28 21.448 28 22V25H25C24.448 25 24 25.448 24 26C24 26.552 24.448 27 25 27H29C29.552 27 30 26.552 30 26V22C30 21.448 29.552 21 29 21Z" fill="#067EED"/>
<path d="M29 3H25C24.448 3 24 3.448 24 4C24 4.552 24.448 5 25 5H28V8C28 8.552 28.448 9 29 9C29.552 9 30 8.552 30 8V4C30 3.448 29.552 3 29 3Z" fill="#067EED"/>
<path d="M5 25H2V22C2 21.448 1.552 21 1 21C0.448 21 0 21.448 0 22V26C0 26.552 0.448 27 1 27H5C5.552 27 6 26.552 6 26C6 25.448 5.552 25 5 25Z" fill="#067EED"/>
<path d="M5 7.00024C4.448 7.00024 4 7.44824 4 8.00025V22.0003C4 22.5523 4.448 23.0003 5 23.0003C5.55199 23.0003 5.99999 22.5523 5.99999 22.0003V8.00025C5.99999 7.44824 5.55199 7.00024 5 7.00024Z" fill="#067EED"/>
<path d="M9 7.00024C8.448 7.00024 8 7.44824 8 8.00024V18.0002C8 18.5522 8.448 19.0002 9 19.0002C9.552 19.0002 10 18.5522 10 18.0002V8.00024C10 7.44824 9.552 7.00024 9 7.00024Z" fill="#067EED"/>
<path d="M13 7.00024C12.448 7.00024 12 7.44824 12 8.00024V18.0002C12 18.5522 12.448 19.0002 13 19.0002C13.552 19.0002 14 18.5522 14 18.0002V8.00024C14 7.44824 13.552 7.00024 13 7.00024Z" fill="#067EED"/>
<path d="M17 7.00024C16.448 7.00024 16 7.44824 16 8.00025V22.0003C16 22.5523 16.448 23.0003 17 23.0003C17.552 23.0003 18 22.5523 18 22.0003V8.00025C18 7.44824 17.552 7.00024 17 7.00024Z" fill="#067EED"/>
<path d="M21 7.00024C20.448 7.00024 20 7.44824 20 8.00024V18.0002C20 18.5522 20.448 19.0002 21 19.0002C21.552 19.0002 22 18.5522 22 18.0002V8.00024C22 7.44824 21.552 7.00024 21 7.00024Z" fill="#067EED"/>
<path d="M25 7.00024C24.448 7.00024 24 7.44824 24 8.00025V22.0003C24 22.5523 24.448 23.0003 25 23.0003C25.552 23.0003 26 22.5523 26 22.0003V8.00025C26 7.44824 25.552 7.00024 25 7.00024Z" fill="#067EED"/>
<path d="M9.04125 21H9.02125C8.46925 21 8.03125 21.448 8.03125 22C8.03125 22.552 8.48925 23 9.04125 23C9.59325 23 10.0413 22.552 10.0413 22C10.0413 21.448 9.59325 21 9.04125 21Z" fill="#067EED"/>
<path d="M13.0413 21H13.0213C12.4693 21 12.0312 21.448 12.0312 22C12.0312 22.552 12.4893 23 13.0413 23C13.5933 23 14.0413 22.552 14.0413 22C14.0413 21.448 13.5933 21 13.0413 21Z" fill="#067EED"/>
<path d="M21.0412 21H21.0212C20.4692 21 20.0312 21.448 20.0312 22C20.0312 22.552 20.4892 23 21.0412 23C21.5932 23 22.0412 22.552 22.0412 22C22.0412 21.448 21.5932 21 21.0412 21Z" fill="#067EED"/>
</svg>
