<svg width="22" height="20" viewBox="0 0 22 20" fill="none" xmlns="http://www.w3.org/2000/svg">
<path d="M2.9618 9.43788V2.33222L10.4545 0L17.8237 2.09992V6.5226L21.668 7.61826V14.9192L14.8639 17.4174V17.4278L7.8586 20L0.00130272 17.4973V10.3594L2.9618 9.43788ZM4.08664 9.82845L1.60715 10.5996L7.84051 12.6342L10.0698 11.7344L4.08664 9.82845ZM3.84766 9.05981L10.3699 11.0032V5.21226L3.84766 3.08325V9.05981ZM4.56765 2.57218L10.8008 4.60674L13.0751 3.68851L7.11338 1.78056L4.56765 2.57218ZM10.469 0.736732L8.29299 1.41398L14.1032 3.27317L16.283 2.394L10.469 0.736732ZM16.9345 2.90659L14.6 3.84857V5.22962L13.7105 5.60309V4.20774L11.2593 5.19771V10.9519L16.9345 9.01692V2.90659ZM17.8239 7.25627V8.7522L17.9472 8.79202L20.1273 7.91285L17.8239 7.25627ZM15.1034 16.4705L20.7788 14.5353V8.42596L18.4443 9.36742V10.7485L17.5549 11.1219V9.7266L15.1034 10.7166V16.4705ZM13.9742 17.0439V10.9341L11.64 11.8758V13.2568L10.7506 13.6303V12.235L8.2991 13.2249V18.9791L13.9742 17.0439ZM0.887413 17.087L7.40943 19.0302V13.2395L0.887413 11.1105V17.087Z" fill="#093450"/>
</svg>
