<svg width="20" height="21" viewBox="0 0 20 21" fill="none" xmlns="http://www.w3.org/2000/svg">
<path d="M18.9505 8.29696H12.2027V1.54875C12.2027 0.969585 11.7331 0.5 11.1535 0.5H8.8461C8.26655 0.5 7.79696 0.969585 7.79696 1.54875V8.29696H1.04914C0.469585 8.29696 0 8.76693 0 9.3461V11.6535C0 12.2327 0.469585 12.7027 1.04914 12.7027H7.79696V19.4509C7.79696 20.0304 8.26655 20.5 8.8461 20.5H11.1535C11.7331 20.5 12.2027 20.0304 12.2027 19.4509V12.7027H18.9505C19.53 12.7027 19.9996 12.2327 19.9996 11.6535V9.3461C19.9996 8.76693 19.53 8.29696 18.9505 8.29696Z" fill="white"/>
</svg>
