<svg width="172" height="125" viewBox="0 0 172 125" fill="none" xmlns="http://www.w3.org/2000/svg">
<path d="M85.7124 27.2123L79.0469 71.1325L85.7124 148L151.961 126.04V49.1726L85.7124 27.2123Z" fill="#033A6E"/>
<path d="M19.4648 49.1726V126.04L85.7133 148V27.2123L19.4648 49.1726Z" fill="#0663BA"/>
<path d="M66.6469 101.419L85.7122 71.1353L19.4637 49.1753L0.398438 79.459L66.6469 101.419Z" fill="#4FA2F0"/>
<path d="M104.776 101.419L85.7109 71.1353L151.959 49.1753L171.025 79.459L104.776 101.419Z" fill="#0663BA"/>
<path d="M25.584 24.0621C27.9937 22.8361 29.262 21.0605 29.262 18.1012C29.262 13.0281 25.6686 10.407 20.215 10.407H7.23639V40H20.2996C26.3873 40 30.2766 36.8716 30.2766 31.4603C30.2766 27.9937 28.7547 25.119 25.584 24.0621ZM23.1743 19.1158C23.1743 21.1028 22.0752 22.1174 19.5809 22.1174H13.2818V16.1565H19.4118C21.9483 16.1565 23.1743 16.9598 23.1743 19.1158ZM20.1727 34.2505H13.2818V27.6555H20.1305C23.2589 27.6555 24.1467 28.7969 24.1467 30.953C24.1467 32.94 23.2589 34.2505 20.1727 34.2505ZM49.2237 9.89972C40.5149 9.89972 33.8354 16.4947 33.8354 25.2035C33.8354 33.9123 40.5149 40.5073 49.2237 40.5073C57.9325 40.5073 64.6544 33.9123 64.6544 25.2035C64.6544 16.4947 57.9325 9.89972 49.2237 9.89972ZM49.2237 15.6492C54.5505 15.6492 58.5244 19.6654 58.5244 25.2035C58.5244 30.7416 54.5505 34.7578 49.2237 34.7578C43.897 34.7578 39.9231 30.7416 39.9231 25.2035C39.9231 19.6654 43.897 15.6492 49.2237 15.6492ZM92.3211 40L82.8091 25.119L92.0675 10.407H84.8806L79.1311 19.9191L73.4239 10.407H66.2371L75.3263 24.6539L65.772 40H72.9589L78.962 29.8116L85.092 40H92.3211ZM109.088 10.407H96.6594V40H102.705V30.4457H109.088C115.43 30.4457 119.615 26.5563 119.615 20.3418C119.615 14.1273 115.43 10.407 109.088 10.407ZM108.835 24.6962H102.705V16.1565H108.835C111.963 16.1565 113.485 17.8053 113.485 20.4264C113.485 23.0052 111.963 24.6962 108.835 24.6962ZM124.733 40H130.778V10.407H124.733V40ZM151.364 40.5073C158.424 40.5073 163.92 36.1529 165.654 29.8538H159.185C157.79 32.8977 154.958 34.7578 151.322 34.7578C145.869 34.7578 142.148 30.7416 142.148 25.2035C142.148 19.6654 145.869 15.6492 151.322 15.6492C154.958 15.6492 157.79 17.5093 159.185 20.5532H165.654C163.92 14.2541 158.424 9.89972 151.364 9.89972C142.529 9.89972 136.061 16.4947 136.061 25.2035C136.061 33.9123 142.529 40.5073 151.364 40.5073Z" fill="white"/>
</svg>
