<svg width="20" height="21" viewBox="0 0 20 21" fill="none" xmlns="http://www.w3.org/2000/svg">
<path d="M3.33333 2.70435H0.666667C0.298667 2.70435 0 3.00301 0 3.37101V6.03768C0 6.40568 0.298667 6.70435 0.666667 6.70435C1.03467 6.70435 1.33333 6.40568 1.33333 6.03768V4.03768H3.33333C3.70133 4.03768 4 3.73901 4 3.37101C4 3.00301 3.70133 2.70435 3.33333 2.70435Z" fill="#093450"/>
<path d="M19.3333 14.7043C18.9653 14.7043 18.6667 15.003 18.6667 15.371V17.371H16.6667C16.2987 17.371 16 17.6697 16 18.0377C16 18.4057 16.2987 18.7044 16.6667 18.7044H19.3333C19.7013 18.7044 20 18.4057 20 18.0377V15.371C20 15.003 19.7013 14.7043 19.3333 14.7043Z" fill="#093450"/>
<path d="M19.3333 2.70435H16.6667C16.2987 2.70435 16 3.00301 16 3.37101C16 3.73901 16.2987 4.03768 16.6667 4.03768H18.6667V6.03768C18.6667 6.40568 18.9653 6.70435 19.3333 6.70435C19.7013 6.70435 20 6.40568 20 6.03768V3.37101C20 3.00301 19.7013 2.70435 19.3333 2.70435Z" fill="#093450"/>
<path d="M3.33333 17.371H1.33333V15.371C1.33333 15.003 1.03467 14.7043 0.666667 14.7043C0.298667 14.7043 0 15.003 0 15.371V18.0377C0 18.4057 0.298667 18.7044 0.666667 18.7044H3.33333C3.70133 18.7044 4 18.4057 4 18.0377C4 17.6697 3.70133 17.371 3.33333 17.371Z" fill="#093450"/>
<path d="M3.33463 5.37109C2.96663 5.37109 2.66797 5.66976 2.66797 6.03776V15.3711C2.66797 15.7391 2.96663 16.0378 3.33463 16.0378C3.70263 16.0378 4.0013 15.7391 4.0013 15.3711V6.03776C4.0013 5.66976 3.70263 5.37109 3.33463 5.37109Z" fill="#093450"/>
<path d="M5.9987 5.37109C5.6307 5.37109 5.33203 5.66976 5.33203 6.03776V12.7044C5.33203 13.0724 5.6307 13.3711 5.9987 13.3711C6.3667 13.3711 6.66536 13.0724 6.66536 12.7044V6.03776C6.66536 5.66976 6.3667 5.37109 5.9987 5.37109Z" fill="#093450"/>
<path d="M8.66667 5.37109C8.29867 5.37109 8 5.66976 8 6.03776V12.7044C8 13.0724 8.29867 13.3711 8.66667 13.3711C9.03467 13.3711 9.33334 13.0724 9.33334 12.7044V6.03776C9.33334 5.66976 9.03467 5.37109 8.66667 5.37109Z" fill="#093450"/>
<path d="M11.3346 5.37109C10.9666 5.37109 10.668 5.66976 10.668 6.03776V15.3711C10.668 15.7391 10.9666 16.0378 11.3346 16.0378C11.7026 16.0378 12.0013 15.7391 12.0013 15.3711V6.03776C12.0013 5.66976 11.7026 5.37109 11.3346 5.37109Z" fill="#093450"/>
<path d="M13.9987 5.37109C13.6307 5.37109 13.332 5.66976 13.332 6.03776V12.7044C13.332 13.0724 13.6307 13.3711 13.9987 13.3711C14.3667 13.3711 14.6654 13.0724 14.6654 12.7044V6.03776C14.6654 5.66976 14.3667 5.37109 13.9987 5.37109Z" fill="#093450"/>
<path d="M16.6667 5.37109C16.2987 5.37109 16 5.66976 16 6.03776V15.3711C16 15.7391 16.2987 16.0378 16.6667 16.0378C17.0347 16.0378 17.3333 15.7391 17.3333 15.3711V6.03776C17.3333 5.66976 17.0347 5.37109 16.6667 5.37109Z" fill="#093450"/>
<path d="M6.0249 14.7043H6.01156C5.64356 14.7043 5.35156 15.003 5.35156 15.371C5.35156 15.739 5.6569 16.0377 6.0249 16.0377C6.3929 16.0377 6.69156 15.739 6.69156 15.371C6.69156 15.003 6.3929 14.7043 6.0249 14.7043Z" fill="#093450"/>
<path d="M8.69286 14.7043H8.67953C8.31153 14.7043 8.01953 15.003 8.01953 15.371C8.01953 15.739 8.32486 16.0377 8.69286 16.0377C9.06086 16.0377 9.35953 15.739 9.35953 15.371C9.35953 15.003 9.06086 14.7043 8.69286 14.7043Z" fill="#093450"/>
<path d="M14.0249 14.7043H14.0116C13.6436 14.7043 13.3516 15.003 13.3516 15.371C13.3516 15.739 13.6569 16.0377 14.0249 16.0377C14.3929 16.0377 14.6916 15.739 14.6916 15.371C14.6916 15.003 14.3929 14.7043 14.0249 14.7043Z" fill="#093450"/>
</svg>
